# xmcd CD database file
#
# Track frame offsets:
#	150
#	17170
#	33137
#	44112
#	59810
#	77439
#	96040
#	114966
#	131877
#
# Disc length: 1950 seconds
#
# Revision: 0
# Processed by: cddbd v1.5.2PL0 Copyright (c) Steve Scherf et al.
# Submitted via: CDex 1.51
#
DISCID=74079c09
DTITLE=Chris Rea - The Return Of The Fabulous Hofner Bluenotes (promo)
DYEAR=2008
DGENRE=Blues
TTITLE0=Blues for Janice
TTITLE1=Because it's you
TTITLE2=Dirty New Town
TTITLE3=Rock And Roll Tonight
TTITLE4=The Shadow Of A Fool
TTITLE5=Legacy Blues
TTITLE6=Twister Inside
TTITLE7=The Power Of Love
TTITLE8=BB Was A Comanche
EXTD=YEAR: 2008
EXTT0=
EXTT1=
EXTT2=
EXTT3=
EXTT4=
EXTT5=
EXTT6=
EXTT7=
EXTT8=
PLAYORDER=
